<?xml version="1.0" encoding="UTF-8" standalone="no"?>
<!DOCTYPE svg PUBLIC "-//W3C//DTD SVG 1.1//EN" "http://www.w3.org/Graphics/SVG/1.1/DTD/svg11.dtd">
<svg version="1.1" xmlns="http://www.w3.org/2000/svg" xmlns:xlink="http://www.w3.org/1999/xlink" preserveAspectRatio="xMidYMid meet" viewBox="0 0 230 230" width="230" height="230"><defs><path d="M190.69 115C190.69 167.13 148.37 209.44 96.24 209.44C44.12 209.44 1.8 167.13 1.8 115C1.8 62.87 44.12 20.56 96.24 20.56C148.37 20.56 190.69 62.87 190.69 115Z" id="i3hdMXB1PE"></path><path d="M150.21 115C150.21 144.79 126.03 168.97 96.24 168.97C66.46 168.97 42.28 144.79 42.28 115C42.28 85.21 66.46 61.03 96.24 61.03C126.03 61.03 150.21 85.21 150.21 115Z" id="g5I98eT0L0"></path><path d="M163.12 181.88L96.24 115L163.12 48.12L230 115L163.12 181.88Z" id="gWICjdDjL"></path><path d="M197.47 115L163.12 149.35L128.78 115L163.12 80.65L197.47 115Z" id="d1Kqf3wQjR"></path></defs><g><g><g><use xlink:href="#i3hdMXB1PE" opacity="1" fill="#586c99" fill-opacity="1"></use></g><g><use xlink:href="#g5I98eT0L0" opacity="1" fill="#77dd26" fill-opacity="1"></use></g><g><use xlink:href="#gWICjdDjL" opacity="1" fill="#de7996" fill-opacity="1"></use></g><g><use xlink:href="#d1Kqf3wQjR" opacity="1" fill="#ffda64" fill-opacity="0.99"></use></g></g></g></svg>